# xmcd
#
# Track frame offsets: 
#        150
#        12425
#        38020
#        63527
#        89882
#        151547
#        181210
#        210205
#        232537
#        246582
#        269102
#        282870
#
# Disc length: 4017 seconds
#
# Revision: 3
# Processed by: cddbd v1.5.2PL0 Copyright (c) Steve Scherf et al.
# Submitted via: ExactAudioCopyFreeDBPlugin 1.0
#
DISCID=9e0faf0c
DTITLE=Vangelis - Mythodea
DYEAR=2001
DGENRE=Electronic
TTITLE0=Movement 1
TTITLE1=Movement 2
TTITLE2=Movement 3
TTITLE3=Movement 4
TTITLE4=Movement 5
TTITLE5=Movement 6
TTITLE6=Movement 7
TTITLE7=Movement 8
TTITLE8=Movement 9
TTITLE9=Movement 10
TTITLE10=Movement 11
TTITLE11=Mythodea - Special edit
EXTD=YEAR: 2001
EXTT0=
EXTT1=
EXTT2=
EXTT3=
EXTT4=
EXTT5=
EXTT6=
EXTT7=
EXTT8=
EXTT9=
EXTT10=
EXTT11=
PLAYORDER=
